<svg xmlns="http://www.w3.org/2000/svg" viewBox="0 0 512 512">
  <rect width="512" height="512" rx="64" fill="#2563eb"/>
  <g transform="translate(131, 48) scale(0.42)">
    <path d="M50.3335 113.333c5.8332,0 12.6662,-4.49988 20.4998,-13.1668 24.3333,-26.8329 54.1664,-48.1661 89.4998,-64.3331 35.3334,-15.9999 70.3334,-24.1669 104.833,-24.1669 38.0001,0 57.1665,11.6671 57.1665,34.6671 0,14.6666 -6.66662,31.1664 -20.1663,49.6665 -13.3332,18.333 -45.1666,54.6663 -95.6665,109 -63.5003,68.8336 -105.833,119.667 -126.834,152.834 -27.9998,43.9997 -42.0001,85.8333 -42.0001,125.5 0,60.0003 26.6665,109 80.0001,147.001 52.5002,37.4995 117,56.166 193.833,56.166 53.6665,0 103,-10.833 148,-32.6661 16.8333,-8.50056 31.5006,-18.3337 43.6669,-29.3338 12.167,-11.0001 18.3337,-20.3334 18.3337,-27.8334 0,-3.49936 -1.66683,-6.83302 -5.1669,-9.99958 -3.33366,-3.16656 -6.83373,-4.66699 -10.5002,-4.66699 -5.4997,0 -13.6667,5.0005 -24.3333,15.1672 -17.6667,16.6662 -40.6667,30.3329 -69.3336,41.333 -28.6661,10.833 -56.166,16.3334 -82.4997,16.3334 -16.3334,0 -29.6666,-3.50006 -39.8333,-10.5002 -10.3331,-7.00013 -15.5,-15.9999 -15.5,-27.1664 0,-13.3332 6.50022,-29.6666 19.1664,-48.8338 12.6669,-19.1664 34.1672,-44.6667 64.3338,-76.6665 95.8329,-101.833 154.333,-170.5 175.833,-206 22.5001,-37.5002 33.6666,-73.667 33.6666,-108.501 0,-29.4995 -7.99994,-57.5 -23.8334,-83.833 -15.9999,-26.5001 -38.1665,-48.1668 -66.4998,-65.0001 -54,-32.1669 -119.833,-48.3332 -197.667,-48.3332 -71.6667,0 -134.666,18.5001 -189,55.6668 -38.1665,25.9995 -57.1665,46.3328 -57.1665,60.9994 0,4.16708 1.66683,8.00065 5.1669,11.5 3.33296,3.33366 7.33293,5.1669 11.9999,5.1669z" fill="white"/>
  </g>
</svg>
